<?xml version='1.0' encoding='iso-8859-1'?>
<svg version="1.1" xmlns="http://www.w3.org/2000/svg" viewBox="0 0 295.82 295.82" xmlns:xlink="http://www.w3.org/1999/xlink" enable-background="new 0 0 295.82 295.82">
  <g>
    <g>
      <path fill="#FFFFFF" d="M147.91,0C66.124,0,0,66.124,0,147.91s66.124,147.91,147.91,147.91s147.91-66.124,147.91-147.91S229.696,0,147.91,0z     M147.91,278.419c-71.345,0-130.509-59.164-130.509-130.509S76.565,17.401,147.91,17.401S278.419,76.565,278.419,147.91    S219.255,278.419,147.91,278.419z"/>
      <path fill="#FFFFFF" d="m163.571,111.368c3.48-3.48 3.48-8.701 0-12.181s-8.701-3.48-12.181,0l-33.062,33.062c-8.701,8.701-8.701,24.362 0,33.062l33.062,33.062c1.74,1.74 5.22,1.74 6.96,1.74 1.74,0 3.48,0 5.22-1.74 3.48-3.48 3.48-8.701 0-12.181l-33.062-33.062c-1.74-3.48-1.74-6.96 0-8.701l33.063-33.061z"/>
    </g>
  </g>
</svg>
