<?xml version="1.0" encoding="utf-8"?>
<!-- Svg Vector Icons : http://www.onlinewebfonts.com/icon -->
<!DOCTYPE svg PUBLIC "-//W3C//DTD SVG 1.1//EN" "http://www.w3.org/Graphics/SVG/1.1/DTD/svg11.dtd">
<svg xmlns="http://www.w3.org/2000/svg" xmlns:xlink="http://www.w3.org/1999/xlink" x="0px" y="0px" viewBox="0 0 1000 1000" xml:space="preserve">
<g><path fill="#FFFFFF" d="M967.3,960.7c-6.8-218.5-162.9-399.1-369.8-443c97.1-38.8,165.8-133.5,165.8-244.4C763.3,127.9,645.4,10,500,10c-145.4,0-263.3,117.9-263.3,263.3c0,111,68.7,205.7,165.8,244.4c-206.9,43.9-363.1,224.6-369.9,443c-0.1,4.9-0.7,9.7-0.7,14.6c0,4.9,0.6,9.7,0.7,14.6h29.3h876.1h29.3c0.1-4.9,0.7-9.7,0.7-14.6C968.1,970.4,967.5,965.7,967.3,960.7z M266,273.3c0-129,105-234,234-234c129,0,234,105,234,234s-105,234-234,234C371,507.3,266,402.3,266,273.3z M61.9,960.7C69.7,725.6,263,536.6,500,536.6c237,0,430.3,189,438.1,424.2H61.9z"/></g>
</svg>